<svg width="16" height="16" viewBox="0 0 16 16" fill="none" xmlns="http://www.w3.org/2000/svg">
<rect width="16" height="16" rx="4" fill="black"/>
<path d="M10.3358 6.1708C9.79834 5.47964 9.13514 5.14598 8.31185 5.14598C7.48857 5.14598 6.82536 5.51539 6.33368 6.2423C5.86487 6.96921 5.62474 7.77954 5.62474 8.6852C5.62474 9.94836 6.25364 10.8421 7.44283 10.8421C8.23181 10.8421 8.73493 10.711 8.96362 10.425L9.0894 9.6147H7.45426L7.88877 6.76663H12.9771L12.1996 11.9623C11.342 12.7011 10.5187 13.2254 9.7183 13.5472C8.92931 13.8451 7.98025 14 6.88254 14C5.41892 14 4.24116 13.5829 3.34927 12.7368C2.45738 11.8908 2 10.711 2 9.20953C2 7.1003 2.6289 5.37239 3.87526 4.02582C5.12162 2.67925 6.75676 2 8.76923 2C10.6331 2 11.9137 2.572 13 4.03774L10.3358 6.1708Z" fill="#EB440F"/>
</svg>
