<svg width="25" height="25" viewBox="0 0 25 25" fill="none" xmlns="http://www.w3.org/2000/svg">
<path d="M15.25 22.125H22.125V2.875H2.875V22.125H12.5V15.25H9.75V12.5H12.5V10.2257C12.5 8.38737 12.6925 7.7205 13.05 7.04812C13.4022 6.38288 13.9464 5.83907 14.612 5.4875C15.1372 5.20563 15.7904 5.0365 16.9316 4.96362C17.384 4.93475 17.9697 4.9705 18.6889 5.07363V7.68612H18C16.7391 7.68612 16.218 7.74525 15.9072 7.91162C15.7219 8.00707 15.5709 8.15801 15.4755 8.34338C15.3105 8.65413 15.25 8.96213 15.25 10.2244V12.5H18.6875L18 15.25H15.25V22.125ZM1.5 0.125H23.5C23.8647 0.125 24.2144 0.269866 24.4723 0.527728C24.7301 0.785591 24.875 1.13533 24.875 1.5V23.5C24.875 23.8647 24.7301 24.2144 24.4723 24.4723C24.2144 24.7301 23.8647 24.875 23.5 24.875H1.5C1.13533 24.875 0.785591 24.7301 0.527728 24.4723C0.269866 24.2144 0.125 23.8647 0.125 23.5V1.5C0.125 1.13533 0.269866 0.785591 0.527728 0.527728C0.785591 0.269866 1.13533 0.125 1.5 0.125Z" fill="white"/>
</svg>
