<svg width="29" height="29" viewBox="0 0 29 29" fill="none" xmlns="http://www.w3.org/2000/svg">
<path d="M8.725 0.75H20.275C24.675 0.75 28.25 4.325 28.25 8.725V20.275C28.25 22.3901 27.4098 24.4186 25.9142 25.9142C24.4186 27.4098 22.3901 28.25 20.275 28.25H8.725C4.325 28.25 0.75 24.675 0.75 20.275V8.725C0.75 6.6099 1.59022 4.58143 3.08582 3.08582C4.58143 1.59022 6.6099 0.75 8.725 0.75ZM8.45 3.5C7.13718 3.5 5.87813 4.02152 4.94982 4.94982C4.02152 5.87813 3.5 7.13718 3.5 8.45V20.55C3.5 23.2862 5.71375 25.5 8.45 25.5H20.55C21.8628 25.5 23.1219 24.9785 24.0502 24.0502C24.9785 23.1219 25.5 21.8628 25.5 20.55V8.45C25.5 5.71375 23.2862 3.5 20.55 3.5H8.45ZM21.7188 5.5625C22.1746 5.5625 22.6118 5.74358 22.9341 6.06591C23.2564 6.38824 23.4375 6.82541 23.4375 7.28125C23.4375 7.73709 23.2564 8.17426 22.9341 8.49659C22.6118 8.81892 22.1746 9 21.7188 9C21.2629 9 20.8257 8.81892 20.5034 8.49659C20.1811 8.17426 20 7.73709 20 7.28125C20 6.82541 20.1811 6.38824 20.5034 6.06591C20.8257 5.74358 21.2629 5.5625 21.7188 5.5625ZM14.5 7.625C16.3234 7.625 18.072 8.34933 19.3614 9.63864C20.6507 10.928 21.375 12.6766 21.375 14.5C21.375 16.3234 20.6507 18.072 19.3614 19.3614C18.072 20.6507 16.3234 21.375 14.5 21.375C12.6766 21.375 10.928 20.6507 9.63864 19.3614C8.34933 18.072 7.625 16.3234 7.625 14.5C7.625 12.6766 8.34933 10.928 9.63864 9.63864C10.928 8.34933 12.6766 7.625 14.5 7.625ZM14.5 10.375C13.406 10.375 12.3568 10.8096 11.5832 11.5832C10.8096 12.3568 10.375 13.406 10.375 14.5C10.375 15.594 10.8096 16.6432 11.5832 17.4168C12.3568 18.1904 13.406 18.625 14.5 18.625C15.594 18.625 16.6432 18.1904 17.4168 17.4168C18.1904 16.6432 18.625 15.594 18.625 14.5C18.625 13.406 18.1904 12.3568 17.4168 11.5832C16.6432 10.8096 15.594 10.375 14.5 10.375Z" fill="white"/>
</svg>
