<svg width="273" height="73" viewBox="0 0 273 73" fill="none" xmlns="http://www.w3.org/2000/svg">
<path d="M33.1644 38.6723H43.1997L40.6467 63.3761H32.9369L34.8833 49.5086L29.6508 63.3508H22.8764L22.0675 49.5086L19.5903 63.3508H11.8806L17.1889 38.647H27.2242L28.0836 51.9335L33.1644 38.6723Z" fill="white"/>
<path d="M62.4108 38.6723L66.7839 63.3761H58.2653L57.9114 59.9156H51.2128L49.7467 63.3761H41.5819L53.7658 38.6723H62.4108ZM53.8164 53.6512H57.2542L56.5464 47.21L53.8164 53.6512Z" fill="white"/>
<path d="M87.3347 38.6723H94.9686L91.0758 63.3761H82.9111L77.9314 49.7612C77.7545 51.4536 77.0972 55.9498 75.9345 63.3508H68.3006L72.1933 38.647H80.6867L85.3378 52.2367C85.4389 50.8726 85.6158 49.5086 85.7928 48.1194L86.6522 42.7896L87.3347 38.6723Z" fill="white"/>
<path d="M113.447 38.6723L117.82 63.3761H109.301L108.947 59.9156H102.249L100.783 63.3761H92.6178L104.802 38.6723H113.447ZM104.852 53.6512H108.29L107.582 47.21L104.852 53.6512Z" fill="white"/>
<path d="M136.298 47.1343C135.11 45.6692 133.644 44.962 131.824 44.962C130.004 44.962 128.537 45.745 127.451 47.2858C126.414 48.8267 125.883 50.5443 125.883 52.464C125.883 55.1416 127.274 57.036 129.903 57.036C131.647 57.036 132.759 56.7582 133.264 56.1519L133.542 54.4343H129.928L130.888 48.3973H142.137L140.418 59.4104C138.522 60.9765 136.702 62.0879 134.933 62.7699C133.189 63.4267 131.091 63.7298 128.664 63.7298C125.428 63.7298 122.825 62.8457 120.853 61.0523C118.881 59.2589 117.87 56.7582 117.87 53.5755C117.87 49.1045 119.261 45.4419 122.016 42.5876C124.771 39.7332 128.386 38.2935 132.835 38.2935C136.955 38.2935 139.786 39.5059 142.187 42.6128L136.298 47.1343Z" fill="white"/>
<path d="M146.08 38.6723H163.016L161.98 45.0882H152.88L152.45 47.6899H161.045L160.034 54.1059H151.439L151.009 56.9097H160.463L159.427 63.3761H142.162L146.08 38.6723Z" fill="white"/>
<path d="M182.885 38.6723H192.92L190.367 63.3761H182.657L184.604 49.5339L179.371 63.3761H172.597L171.762 49.5339L169.285 63.3761H161.576L166.884 38.6723H176.944L177.804 51.9588L182.885 38.6723Z" fill="white"/>
<path d="M196.56 38.6723H213.496L212.46 45.0882H203.36L202.93 47.6899H211.524L210.513 54.1059H201.919L201.489 56.9097H210.943L209.907 63.3761H192.642L196.56 38.6723Z" fill="white"/>
<path d="M231.115 38.6723H238.749L234.856 63.3761H226.691L221.711 49.7612C221.534 51.4536 220.877 55.9498 219.714 63.3508H212.081L215.973 38.647H224.467L229.118 52.2367C229.219 50.8726 229.396 49.5086 229.573 48.1194L230.432 42.7896L231.115 38.6723Z" fill="white"/>
<path d="M240.644 38.6723H259.653L258.642 45.0124H253.056L250.149 63.3761H242.313L245.22 45.0124H239.633L240.644 38.6723Z" fill="white"/>
<path d="M31.6983 18.0858C30.5103 16.6208 29.0442 15.9135 27.2242 15.9135C25.4042 15.9135 23.9381 16.6966 22.8511 18.2374C21.8147 19.7782 21.2839 21.4959 21.2839 23.4156C21.2839 26.0931 22.6742 27.9876 25.3031 27.9876C27.0472 27.9876 28.1595 27.7097 28.665 27.1035L28.9431 25.3858H25.3283L26.2889 19.3488H37.5375L35.8186 30.3619C33.9228 31.928 32.1028 33.0395 30.3333 33.7215C28.5892 34.353 26.4911 34.6813 24.0645 34.6813C20.8289 34.6813 18.2253 33.7972 16.2536 32.0038C14.282 30.2104 13.2708 27.7097 13.2708 24.527C13.2708 20.0561 14.6611 16.3934 17.4164 13.5391C20.1717 10.6848 23.7864 9.245 28.2353 9.245C32.3556 9.245 35.1867 10.4575 37.5881 13.5644L31.6983 18.0858Z" fill="white"/>
<path d="M54.5747 24.9059L58.4422 34.2772H49.4181L46.9408 26.0931H45.9803L44.6911 34.2772H36.855L40.7478 9.59863H51.0864C55.4847 9.59863 59.782 10.9879 59.782 16.1408C59.8072 19.8287 57.8356 23.0872 54.5747 24.9059ZM49.5192 15.7114H47.5728L46.8903 19.9298H48.9378C50.5556 19.9298 51.7689 18.9699 51.7689 17.3786C51.7689 16.2419 50.7831 15.7114 49.5192 15.7114Z" fill="white"/>
<path d="M63.6747 9.59863H71.5108L67.6181 34.3024H59.782L63.6747 9.59863Z" fill="white"/>
<path d="M74.6706 9.59863H94.6653L93.7806 15.181L81.5209 27.6339H92.2892L91.2528 34.3024H70.3734L71.2581 28.5433L83.5178 16.0903H73.6089L74.6706 9.59863Z" fill="white"/>
<path d="M97.5722 9.59863H117.567L116.708 15.181L104.448 27.6339H115.216L114.18 34.3024H93.3003L94.185 28.5433L106.445 16.0903H96.5358L97.5722 9.59863Z" fill="white"/>
<path d="M125.757 27.6339H133.846L132.809 34.3024H116.91L120.828 9.59863H128.639L125.757 27.6339Z" fill="white"/>
<path d="M148.886 9.59863H157.582L146.914 24.628L145.398 34.3024H137.562L139.104 24.628L133.214 9.59863H141.909L144.083 17.8332L148.886 9.59863Z" fill="white"/>
</svg>
