<svg width="252" height="57" viewBox="0 0 252 57" fill="none" xmlns="http://www.w3.org/2000/svg">
<path d="M21.6504 31.2021H31.8327L29.2422 56.2443H21.4195L23.3944 42.1868L18.0853 56.2187H11.2116L10.3908 42.1868L7.87731 56.2187H0.0546265L5.44074 31.1765H15.6231L16.4951 44.645L21.6504 31.2021Z" fill="#BC360C"/>
<path d="M51.3253 31.2021L55.7624 56.2443H47.119L46.7599 52.7363H39.9632L38.4756 56.2443H30.1912L42.5536 31.2021H51.3253ZM42.6049 46.3862H46.0931L45.3749 39.8568L42.6049 46.3862Z" fill="#BC360C"/>
<path d="M76.6143 31.2021H84.3601L80.4102 56.2443H72.1259L67.0732 42.4429C66.8937 44.1585 66.2268 48.7162 65.047 56.2187H57.3013L61.2511 31.1765H69.8689L74.5881 44.9522C74.6907 43.5695 74.8702 42.1868 75.0498 40.7785L75.9218 35.3758L76.6143 31.2021Z" fill="#BC360C"/>
<path d="M103.109 31.2021L107.546 56.2443H98.9026L98.5435 52.7363H91.7467L90.2591 56.2443H81.9748L94.3372 31.2021H103.109ZM94.3885 46.3862H97.8766L97.1585 39.8568L94.3885 46.3862Z" fill="#BC360C"/>
<path d="M126.295 39.7799C125.089 38.2948 123.602 37.5779 121.755 37.5779C119.908 37.5779 118.421 38.3716 117.318 39.9336C116.266 41.4955 115.728 43.2367 115.728 45.1827C115.728 47.8969 117.138 49.8173 119.806 49.8173C121.576 49.8173 122.704 49.5356 123.217 48.9211L123.499 47.1799H119.831L120.806 41.0602H132.22L130.475 52.2242C128.552 53.8118 126.705 54.9384 124.91 55.6298C123.14 56.2955 121.011 56.6028 118.549 56.6028C115.266 56.6028 112.624 55.7066 110.624 53.8886C108.623 52.0706 107.597 49.5356 107.597 46.3093C107.597 41.7772 109.008 38.0644 111.804 35.1709C114.599 32.2775 118.267 30.818 122.781 30.818C126.962 30.818 129.834 32.0471 132.271 35.1965L126.295 39.7799Z" fill="#BC360C"/>
<path d="M136.221 31.2021H153.405L152.353 37.7059H143.12L142.684 40.3433H151.404L150.378 46.8471H141.658L141.222 49.6893H150.814L149.763 56.2443H132.245L136.221 31.2021Z" fill="#BC360C"/>
<path d="M173.564 31.2021H183.747L181.156 56.2443H173.334L175.308 42.2125L169.999 56.2443H163.126L162.279 42.2125L159.766 56.2443H151.943L157.329 31.2021H167.537L168.409 44.6706L173.564 31.2021Z" fill="#BC360C"/>
<path d="M187.44 31.2021H204.624L203.573 37.7059H194.339L193.903 40.3433H202.624L201.598 46.8471H192.877L192.441 49.6893H202.034L200.982 56.2443H183.465L187.44 31.2021Z" fill="#BC360C"/>
<path d="M222.501 31.2021H230.247L226.297 56.2443H218.013L212.96 42.4429C212.78 44.1585 212.114 48.7162 210.934 56.2187H203.188L207.138 31.1765H215.756L220.475 44.9522C220.577 43.5695 220.757 42.1868 220.937 40.7785L221.809 35.3758L222.501 31.2021Z" fill="#BC360C"/>
<path d="M232.17 31.2021H251.458L250.432 37.6291H244.764L241.814 56.2443H233.863L236.813 37.6291H231.144L232.17 31.2021Z" fill="#BC360C"/>
<path d="M20.1628 10.3336C18.9573 8.84846 17.4697 8.1315 15.623 8.1315C13.7764 8.1315 12.2888 8.92528 11.1859 10.4872C10.1343 12.0492 9.59573 13.7903 9.59573 15.7363C9.59573 18.4505 11.0064 20.371 13.6738 20.371C15.4435 20.371 16.572 20.0893 17.085 19.4748L17.3671 17.7336H13.6994L14.6741 11.6139H26.0875L24.3434 22.7779C22.4198 24.3654 20.5731 25.4921 18.7778 26.1834C17.008 26.8235 14.8793 27.1564 12.417 27.1564C9.13407 27.1564 6.49231 26.2602 4.49175 24.4422C2.4912 22.6242 1.46527 20.0893 1.46527 16.863C1.46527 12.3308 2.87592 8.61801 5.67157 5.72458C8.46722 2.83116 12.1349 1.37164 16.649 1.37164C20.8296 1.37164 23.7022 2.60071 26.1388 5.75019L20.1628 10.3336Z" stroke="#BC360C"/>
<path d="M43.3744 17.2471L47.2985 26.7467H38.1421L35.6286 18.4505H34.654L33.3459 26.7467H25.395L29.3448 1.7301H39.8349C44.2977 1.7301 48.6579 3.13841 48.6579 8.36194C48.6835 12.1003 46.683 15.4035 43.3744 17.2471ZM38.2447 7.92664H36.2698L35.5773 12.2028H37.6548C39.2963 12.2028 40.5274 11.2298 40.5274 9.61661C40.5274 8.46436 39.5271 7.92664 38.2447 7.92664Z" stroke="#BC360C"/>
<path d="M52.6077 1.7301H60.5586L56.6088 26.7723H48.6579L52.6077 1.7301Z" stroke="#BC360C"/>
<path d="M63.7646 1.7301H84.0523L83.1546 7.38893L70.7153 20.0125H81.6414L80.5898 26.7723H59.4044L60.3021 20.9343L72.7415 8.31073H62.6874L63.7646 1.7301Z" stroke="#BC360C"/>
<path d="M87.0018 1.7301H107.29L106.417 7.38893L93.9781 20.0125H104.904L103.853 26.7723H82.6673L83.565 20.9343L96.0043 8.31073H85.9503L87.0018 1.7301Z" stroke="#BC360C"/>
<path d="M115.6 20.0125H123.807L122.755 26.7723H106.623L110.598 1.7301H118.523L115.6 20.0125Z" stroke="#BC360C"/>
<path d="M139.068 1.7301H147.891L137.067 16.9654L135.528 26.7723H127.577L129.142 16.9654L123.166 1.7301H131.989L134.194 10.0775L139.068 1.7301Z" stroke="#BC360C"/>
</svg>
