<svg width="9" height="14" viewBox="0 0 9 14" fill="none" xmlns="http://www.w3.org/2000/svg">
<path d="M8.3875 11.85L3.5375 6.99999L8.3875 2.14999C8.50322 2.03426 8.59502 1.89687 8.65766 1.74567C8.72029 1.59446 8.75252 1.4324 8.75252 1.26874C8.75252 1.10507 8.72029 0.943013 8.65766 0.791808C8.59502 0.640603 8.50322 0.503214 8.3875 0.387487C8.27177 0.27176 8.13438 0.17996 7.98318 0.117328C7.83197 0.0546971 7.66991 0.0224609 7.50625 0.0224609C7.34258 0.0224609 7.18052 0.0546971 7.02932 0.117328C6.87811 0.17996 6.74073 0.27176 6.625 0.387487L0.887497 6.12499C0.771618 6.24063 0.679684 6.37799 0.616957 6.52921C0.55423 6.68042 0.521942 6.84253 0.521942 7.00624C0.521942 7.16995 0.55423 7.33205 0.616957 7.48327C0.679684 7.63448 0.771618 7.77184 0.887497 7.88749L6.625 13.625C7.1125 14.1125 7.9 14.1125 8.3875 13.625C8.8625 13.1375 8.875 12.3375 8.3875 11.85Z" fill="white"/>
</svg>
