<svg width="15" height="25" viewBox="0 0 15 25" fill="none" xmlns="http://www.w3.org/2000/svg">
<path d="M14.3347 21.1687L5.49576 12.4883L14.3347 3.80782C14.5457 3.60069 14.713 3.35479 14.8271 3.08417C14.9412 2.81354 15 2.52349 15 2.23057C15 1.93765 14.9412 1.64759 14.8271 1.37697C14.713 1.10634 14.5457 0.860446 14.3347 0.653318C14.1238 0.446191 13.8735 0.281889 13.5979 0.169792C13.3223 0.0576958 13.027 -2.18244e-09 12.7287 0C12.4304 2.18244e-09 12.1351 0.0576958 11.8595 0.169792C11.5839 0.281889 11.3336 0.446191 11.1226 0.653318L0.666214 10.9222C0.455027 11.1292 0.287479 11.375 0.173161 11.6457C0.0588435 11.9163 0 12.2065 0 12.4995C0 12.7925 0.0588435 13.0826 0.173161 13.3532C0.287479 13.6239 0.455027 13.8697 0.666214 14.0767L11.1226 24.3456C12.0111 25.2181 13.4463 25.2181 14.3347 24.3456C15.2004 23.4731 15.2232 22.0413 14.3347 21.1687Z" fill="#EB440F"/>
</svg>
